<svg xmlns="http://www.w3.org/2000/svg" width="1200" height="630" viewBox="0 0 1200 630" role="img" aria-labelledby="title desc">
  <title id="title">Python libraries for data science</title>
  <desc id="desc">Illustration of a Python data stack with analysis, charts, and machine learning.</desc>
  <defs>
    <linearGradient id="bg" x1="0%" x2="100%" y1="0%" y2="100%">
      <stop offset="0%" stop-color="#111827"/>
      <stop offset="100%" stop-color="#1d4ed8"/>
    </linearGradient>
  </defs>
  <rect width="1200" height="630" fill="url(#bg)"/>
  <rect x="110" y="110" width="980" height="410" rx="30" fill="#eff6ff" opacity=".96"/>
  <g font-family="Arial, sans-serif" font-weight="700">
    <rect x="158" y="166" width="168" height="76" rx="18" fill="#fde68a"/>
    <text x="194" y="214" fill="#92400e" font-size="30">NumPy</text>
    <rect x="356" y="166" width="168" height="76" rx="18" fill="#bfdbfe"/>
    <text x="387" y="214" fill="#1d4ed8" font-size="30">Pandas</text>
    <rect x="554" y="166" width="196" height="76" rx="18" fill="#a7f3d0"/>
    <text x="590" y="214" fill="#065f46" font-size="30">Matplotlib</text>
    <rect x="780" y="166" width="202" height="76" rx="18" fill="#ddd6fe"/>
    <text x="816" y="214" fill="#5b21b6" font-size="30">scikit-learn</text>
  </g>
  <g fill="#1f2937">
    <rect x="162" y="304" width="248" height="16" rx="8"/>
    <rect x="162" y="340" width="188" height="16" rx="8" opacity=".55"/>
    <rect x="162" y="376" width="228" height="16" rx="8" opacity=".55"/>
    <rect x="478" y="300" width="540" height="140" rx="22" fill="#dbeafe"/>
  </g>
  <g stroke-width="10" fill="none" stroke-linecap="round" stroke-linejoin="round">
    <path d="M540 394 635 338 714 364 804 286 952 320" stroke="#2563eb"/>
    <path d="M546 420 662 422 756 388 836 404 952 360" stroke="#16a34a"/>
  </g>
  <text x="110" y="74" fill="#dbeafe" font-size="28" font-family="Arial, sans-serif">A practical stack for analysis, visualization, and modeling.</text>
  <text x="110" y="580" fill="#f8fafc" font-size="56" font-family="Arial, sans-serif" font-weight="700">Python Libraries for Data Science</text>
</svg>
