<svg xmlns="http://www.w3.org/2000/svg" width="1200" height="630" viewBox="0 0 1200 630" role="img" aria-labelledby="title desc">
  <title id="title">What is GTFS</title>
  <desc id="desc">Transit route map illustration for GTFS.</desc>
  <defs>
    <linearGradient id="bg" x1="0%" x2="100%" y1="0%" y2="100%">
      <stop offset="0%" stop-color="#082f49"/>
      <stop offset="100%" stop-color="#0f766e"/>
    </linearGradient>
  </defs>
  <rect width="1200" height="630" fill="url(#bg)"/>
  <rect x="92" y="98" width="430" height="434" rx="30" fill="#f8fafc"/>
  <rect x="592" y="118" width="520" height="394" rx="30" fill="#e0f2fe"/>
  <g stroke-linecap="round" stroke-width="14" fill="none">
    <path d="M165 205C220 205 238 250 290 250s70-58 132-58 89 71 145 71" stroke="#0ea5e9"/>
    <path d="M170 310C240 310 250 390 340 390s97-98 190-98" stroke="#22c55e"/>
    <path d="M190 440C240 440 260 372 330 372s80 46 150 46 110-50 154-50" stroke="#f97316"/>
  </g>
  <g fill="#0f172a">
    <circle cx="188" cy="205" r="11"/>
    <circle cx="338" cy="390" r="11"/>
    <circle cx="480" cy="418" r="11"/>
  </g>
  <g fill="#0f172a" opacity=".8">
    <rect x="648" y="180" width="176" height="26" rx="13"/>
    <rect x="648" y="236" width="320" height="18" rx="9" opacity=".65"/>
    <rect x="648" y="274" width="280" height="18" rx="9" opacity=".65"/>
    <rect x="648" y="312" width="340" height="18" rx="9" opacity=".65"/>
    <rect x="648" y="350" width="250" height="18" rx="9" opacity=".65"/>
  </g>
  <text x="92" y="74" fill="#bae6fd" font-size="26" font-family="Arial, sans-serif">Open transit data that powers route planning and analytics.</text>
  <text x="592" y="552" fill="#f8fafc" font-size="60" font-family="Arial, sans-serif" font-weight="700">What Is GTFS?</text>
</svg>
