<svg xmlns="http://www.w3.org/2000/svg" width="1200" height="630" viewBox="0 0 1200 630" role="img" aria-labelledby="title desc">
  <title id="title">Bias and variance in plain English</title>
  <desc id="desc">Illustration of model complexity and error tradeoff.</desc>
  <defs>
    <linearGradient id="bg" x1="0%" x2="100%" y1="0%" y2="100%">
      <stop offset="0%" stop-color="#1e1b4b"/>
      <stop offset="100%" stop-color="#0f172a"/>
    </linearGradient>
  </defs>
  <rect width="1200" height="630" fill="url(#bg)"/>
  <rect x="92" y="110" width="1010" height="390" rx="28" fill="#111827" stroke="#334155" stroke-width="2"/>
  <g stroke-linecap="round" stroke-width="10" fill="none">
    <path d="M170 385C245 335 315 275 390 225 470 172 560 162 685 195" stroke="#f59e0b"/>
    <path d="M515 190C620 205 705 250 770 330 815 386 865 404 930 404" stroke="#38bdf8"/>
    <path d="M170 410C240 380 310 350 390 310 480 264 580 247 690 260 790 272 890 312 1020 382" stroke="#86efac" stroke-dasharray="18 14"/>
  </g>
  <g fill="#f8fafc" font-family="Arial, sans-serif">
    <text x="170" y="170" font-size="22">High bias</text>
    <text x="860" y="190" font-size="22">High variance</text>
    <text x="535" y="305" font-size="26" font-weight="700">Best generalization zone</text>
    <text x="90" y="82" font-size="58" font-weight="700">Bias and Variance in Plain English</text>
  </g>
</svg>
